<?xml version="1.0" standalone="no"?>
<!DOCTYPE svg PUBLIC "-//W3C//DTD SVG 20010904//EN"
 "http://www.w3.org/TR/2001/REC-SVG-20010904/DTD/svg10.dtd">
<svg version="1.0" xmlns="http://www.w3.org/2000/svg"
 width="512.000000pt" height="512.000000pt" viewBox="0 0 512.000000 512.000000"
 preserveAspectRatio="xMidYMid meet">

<g transform="translate(0.000000,512.000000) scale(0.100000,-0.100000)"
fill="#000000" stroke="none">
<path d="M3894 4962 c-6 -4 -27 -33 -48 -64 -49 -74 -159 -177 -260 -243 -44
-29 -154 -91 -243 -138 -211 -111 -350 -207 -478 -329 -155 -148 -253 -286
-320 -450 -18 -44 -35 -81 -37 -84 -3 -3 -20 31 -38 75 -39 98 -123 242 -189
325 -78 97 -237 245 -341 314 -242 164 -590 292 -912 337 -155 22 -184 20
-203 -9 -15 -23 -14 -29 13 -93 44 -103 69 -200 87 -335 l6 -48 -140 0 c-140
0 -141 0 -157 -26 -17 -25 -16 -28 24 -109 46 -91 86 -219 97 -307 7 -57 7
-57 -21 -63 -80 -18 -125 -49 -154 -104 -23 -46 -49 -216 -57 -374 l-6 -117
-42 -43 c-77 -76 -84 -173 -20 -262 33 -47 33 -48 19 -87 -18 -52 -20 -510 -3
-569 16 -53 60 -103 114 -128 42 -20 60 -21 319 -21 l275 0 21 -30 c32 -45 86
-168 101 -230 33 -135 7 -291 -68 -420 l-38 -65 -320 -6 c-354 -7 -374 -10
-494 -76 -129 -72 -232 -210 -267 -359 -32 -136 -2 -302 75 -423 74 -115 223
-216 356 -241 43 -8 591 -10 1960 -8 l1900 3 14 29 c11 23 11 42 3 95 -15 86
-50 138 -121 174 -49 24 -65 27 -162 27 -118 0 -116 -1 -143 70 -38 97 -32
239 15 338 l21 42 114 0 c124 0 153 8 207 59 35 32 59 75 66 121 6 34 8 35 56
38 202 10 312 50 406 149 106 112 145 213 137 363 -6 105 -33 180 -96 263 -81
105 -202 171 -339 184 -35 3 -63 6 -63 7 0 1 7 19 15 41 17 48 21 498 5 555
-9 30 -7 39 18 72 49 68 62 101 62 157 0 60 -31 125 -75 158 -23 17 -25 26
-35 163 -26 368 -55 424 -236 457 -49 9 -91 17 -93 19 -2 2 17 26 41 53 58 65
110 165 144 276 22 76 27 110 28 220 l1 129 -28 10 c-24 9 -32 6 -70 -31 -23
-22 -67 -55 -97 -71 -51 -28 -229 -96 -236 -90 -1 2 8 36 22 76 33 103 48 228
40 345 -8 117 -49 287 -73 305 -19 13 -43 15 -59 4z m25 -283 c15 -154 -7
-300 -63 -425 l-27 -61 -227 -53 c-543 -127 -727 -196 -871 -326 -28 -25 -54
-45 -56 -42 -8 7 69 126 138 213 133 166 302 294 601 454 223 119 317 183 411
277 38 38 73 67 78 64 4 -3 11 -49 16 -101z m-2823 -89 c406 -73 756 -242 995
-480 120 -119 190 -217 259 -364 74 -156 73 -162 -6 -85 -251 240 -564 407
-929 494 -110 27 -285 55 -340 55 -41 0 -38 -7 -60 134 -14 91 -38 191 -62
252 -7 19 12 18 143 -6z m3175 -473 c-27 -106 -82 -214 -140 -275 -84 -87 -68
-84 -358 -87 -198 -2 -290 -8 -395 -24 -245 -36 -479 -105 -674 -196 l-94 -43
22 41 c68 134 214 263 375 331 102 43 284 94 625 176 343 83 497 129 595 179
l58 29 3 -24 c2 -13 -6 -61 -17 -107z m-3093 -22 c412 -60 800 -234 1056 -477
l71 -67 -102 40 c-366 142 -809 195 -1270 153 l-73 -7 0 27 c0 50 -31 180 -65
270 l-33 89 154 -6 c85 -4 203 -14 262 -22z m406 -461 c263 -29 519 -103 747
-216 l138 -68 -2 -91 c-2 -105 11 -100 -137 -46 -189 69 -447 113 -725 124
-326 12 -655 -38 -904 -138 -41 -16 -76 -27 -79 -24 -8 8 27 320 41 361 18 56
48 71 172 90 226 33 493 36 749 8z m2337 16 c202 -11 384 -35 416 -55 11 -8
26 -29 32 -47 24 -74 52 -378 36 -378 -4 0 -18 6 -33 14 -92 47 -333 109 -537
138 -134 19 -531 16 -684 -6 -195 -26 -379 -72 -520 -129 l-61 -25 0 94 0 93
64 36 c261 146 619 243 973 264 71 5 130 9 133 9 3 1 84 -3 181 -8z m-2191
-425 c228 -14 454 -63 663 -147 l127 -51 43 18 c158 65 219 86 324 113 160 41
295 61 481 71 407 21 759 -38 1034 -174 83 -41 118 -74 118 -113 0 -26 -33
-92 -46 -92 -4 0 -30 15 -58 34 -254 168 -639 246 -1068 218 -304 -20 -538
-73 -726 -162 l-104 -50 -91 44 c-370 178 -997 226 -1437 110 -152 -40 -297
-105 -412 -187 -15 -10 -21 -8 -35 13 -53 74 -34 122 73 177 195 101 458 166
734 182 132 8 185 7 380 -4z m170 -250 c110 -17 267 -54 335 -79 36 -13 -34
-15 -672 -15 -392 -1 -713 1 -713 4 0 2 42 17 93 34 97 31 211 55 337 70 111
14 496 5 620 -14z m1841 14 c130 -13 262 -41 370 -79 l84 -28 -712 -1 c-392
-1 -713 1 -713 4 0 7 129 44 233 66 200 44 521 61 738 38z m611 -229 c20 -6
48 -25 63 -42 l26 -31 -3 -253 -3 -254 -26 -25 c-14 -15 -43 -30 -65 -35 -52
-13 -3626 -12 -3679 0 -24 5 -51 21 -67 40 l-28 30 0 250 0 249 30 35 c17 19
41 37 53 39 51 10 3663 7 3699 -3z m259 -760 c167 -32 292 -169 306 -337 11
-133 -51 -265 -160 -340 -99 -67 20 -63 -1795 -63 -1312 0 -1643 3 -1639 13 3
6 22 48 41 92 80 182 70 390 -29 585 -14 27 -25 52 -25 55 0 10 3245 5 3301
-5z m-291 -855 c0 -23 -33 -77 -56 -92 -27 -17 -107 -18 -1854 -23 l-1825 -5
-50 -27 c-62 -32 -129 -103 -158 -166 -16 -36 -22 -67 -22 -127 0 -71 4 -88
33 -147 37 -76 82 -120 162 -157 l55 -26 1820 -5 c1001 -3 1828 -9 1837 -13
19 -10 42 -42 52 -75 l7 -22 -1888 2 -1888 3 -55 22 c-111 46 -208 142 -252
253 -19 45 -23 75 -23 165 0 103 2 114 32 178 36 77 116 166 183 205 109 65
-15 61 2033 61 1021 1 1857 -1 1857 -4z m-413 -232 c-49 -155 -49 -293 -2
-415 7 -17 -75 -18 -1631 -18 -1568 0 -1641 1 -1679 19 -199 91 -169 379 45
422 19 4 763 7 1654 8 1537 1 1618 0 1613 -16z"/>
</g>
</svg>
